<?xml version="1.0" standalone="no"?>
<!DOCTYPE svg PUBLIC "-//W3C//DTD SVG 1.1//EN" "http://www.w3.org/Graphics/SVG/1.1/DTD/svg11.dtd" >
<!--
2013-9-30: Created.
-->
<svg>
<metadata>
Created by iconfont
</metadata>
<defs>

<font id="iconfont" horiz-adv-x="1024" >
  <font-face
    font-family="iconfont"
    font-weight="500"
    font-stretch="normal"
    units-per-em="1024"
    ascent="896"
    descent="-128"
  />
    <missing-glyph />
    
    <glyph glyph-name="ic_nodata" unicode="&#59221;" d="M77.92-92.896c0-18.752 171.344-34.112 383.616-34.112s383.632 15.36 383.632 34.112c0 18.752-171.36 34.08-383.632 34.08s-383.632-14.48-383.632-34.08z m260 826.928h525.136c10.24 0 18.768-6.832 18.768-15.36v-684.544c0-8.528-8.528-15.36-18.768-15.36h-525.12c-10.24 0-18.768 6.832-18.768 15.36V718.672c0 7.68 8.528 15.36 18.752 15.36zM701.936-84.368c36.656 1.696 65.648 32.384 65.648 69.04V588.24c0 14.496-11.088 26.432-23.872 26.432H229.648c-15.344-1.696-26.416-13.632-24.72-26.432v-646.192c-0.848-13.632 10.24-25.568 24.72-26.416h472.288zM290.176 128.752h170.512c9.376 0 17.04-7.68 17.04-17.056 0-9.376-7.68-17.04-17.04-17.04H290.176c-9.376 0-17.04 7.68-17.04 17.04 0 9.376 7.68 17.056 17.04 17.056z m0 119.36h306.912c9.376 0 17.04-7.68 17.04-17.056 0-9.392-7.68-17.056-17.04-17.056H290.176c-9.376 0-17.04 7.68-17.04 17.056 0 9.376 7.68 17.04 17.04 17.04z m409.2 116.784c0-9.376-5.952-17.92-14.48-17.92h-397.28c-5.952 0-10.224 3.424-12.784 9.392a21.84 21.84 0 0 0 0 17.904c2.56 5.968 7.68 9.376 12.8 9.376h397.264c7.68 0 13.632-8.528 14.48-18.752z m0 129.584c0-9.392-5.952-17.92-14.48-17.92h-397.28c-8.512 0-14.48 8.528-14.48 17.92 0 9.376 5.968 17.888 14.496 17.888h397.264c7.68 0 13.632-8.512 14.48-17.888zM637.152 43.504H145.264v-53.712c0-41.76 28.976-74.16 68.192-74.16h490.192c-36.656 0-66.496 33.232-66.496 74.16v53.712zM928.704 856.8c0-7.68 4.272-14.512 11.088-18.768 6.816-4.272 15.344-4.272 21.312 0 6.816 4.256 11.072 11.088 11.072 18.752 0 7.68-4.256 14.496-11.072 18.752-6.816 4.272-15.36 4.272-21.312 0-6.816-5.12-11.088-11.936-11.088-18.752zM237.328 872.976c-3.408 4.272-8.528 5.968-12.8 3.424l-37.504-23.04a6.656 6.656 0 0 1-3.408-3.392c-2.56-5.12-0.848-10.24 3.408-13.648l34.96-20.448c1.712-0.864 3.408-1.712 4.256-1.712 5.12-0.848 10.24 3.408 10.24 8.528l2.56 43.472c0 3.408 0 5.12-1.712 6.816z m17.904-51.136c-0.848-15.36-14.496-26.432-29.84-25.584-4.256 0.848-8.528 1.712-11.936 3.408l-34.944 20.464c-13.648 8.528-18.768 25.568-11.088 38.368 2.56 3.408 5.12 6.816 9.376 9.376L214.304 890.88c12.8 8.528 30.704 3.408 39.216-9.376 3.408-5.12 5.12-11.072 4.272-17.04l-2.56-42.624z m754.464-623.2c-2.56 3.424-5.968 3.424-8.528 2.56l-23.872-13.632c-0.848-0.848-1.696-0.848-1.696-1.696-1.712-3.408-0.864-5.968 2.56-8.528l23.008-13.648c0.848-0.848 1.712-0.848 3.408-0.848 3.408-0.848 5.968 1.712 5.968 5.12l0.848 27.28c0 0.848-0.848 1.696-1.696 3.408z m13.632-32.384c0-10.24-9.376-17.04-19.6-15.344-3.408 0-5.12 1.712-8.528 3.408l-23.024 13.648c-9.376 5.12-11.92 17.04-7.664 24.72 1.712 2.56 3.408 4.256 5.12 5.12l23.872 13.632c8.512 4.272 19.6 2.56 26.416-6.816 2.56-3.408 4.272-6.816 3.408-11.088v-27.28zM42.96 263.44A42.208 42.208 0 0 0 0.32 306.08c0 24.72 18.752 44.336 42.624 44.336a42.208 42.208 0 0 0 42.624-42.624c1.712-24.72-17.904-44.32-42.624-44.32z m0 60.528c-9.376 0-17.056-7.68-17.056-17.904 0-9.376 7.68-17.904 17.056-17.904 9.376 0 17.056 7.68 17.056 17.92 1.696 11.072-5.968 17.888-17.056 17.888z"  horiz-adv-x="1024" />

    
    <glyph glyph-name="ic_dropdown" unicode="&#59249;" d="M480 280.256l158.528 158.464a32.256 32.256 0 0 0 45.12-0.064 31.616 31.616 0 0 0 0.128-45.184l-181.248-181.248a31.552 31.552 0 0 0-22.656-9.152 30.08 30.08 0 0 0-22.4 9.152L276.224 393.472a32.256 32.256 0 0 0 0.128 45.184 31.616 31.616 0 0 0 45.12 0.064L480 280.32z"  horiz-adv-x="1024" />

    
    <glyph glyph-name="ic_up_normal1" unicode="&#59250;" d="M751.168 512c13.44 0 22.912-17.28 12.16-29.312L529.92 200a21.76 21.76 0 0 0-33.728 0l-236.16 282.688C250.624 494.656 258.752 512 273.536 512h477.632z"  horiz-adv-x="1024" />

    
    <glyph glyph-name="ic_dropup1" unicode="&#59251;" d="M480 551.744l158.528-158.464a32.256 32.256 0 0 1 45.12 0.064 31.616 31.616 0 0 1 0.128 45.184L502.528 619.776a31.552 31.552 0 0 1-22.656 9.152 30.08 30.08 0 0 1-22.4-9.152L276.224 438.528a32.256 32.256 0 0 1 0.128-45.184 31.616 31.616 0 0 1 45.12-0.064L480 551.68z"  horiz-adv-x="1024" />

    
    <glyph glyph-name="ic_down_normal" unicode="&#59252;" d="M751.168 256c13.44 0 22.912 17.28 12.16 29.312L529.92 568a21.76 21.76 0 0 1-33.728 0l-236.16-282.688c-9.408-11.968-1.28-29.312 13.504-29.312h477.632z"  horiz-adv-x="1024" />

    
    <glyph glyph-name="ic_product" unicode="&#59253;" d="M499.328 441.344c-19.2 0-36.2752 4.2752-51.2 10.6752l-285.952 128.0256c-21.3248 6.4-32 19.2-32 36.2752s10.6752 29.8752 29.8752 38.4L450.2528 784.896a186.0352 186.0352 0 0 0 53.3248 8.5248c19.2 0 36.2752-4.2496 51.2-10.6496l285.952-123.776c19.2-10.6496 29.8752-23.4752 29.8752-38.4 0-17.0752-10.6752-29.8752-29.8752-38.4l-290.2016-130.176c-10.6752-8.5248-34.1504-12.8-51.2-10.6496zM439.552-17.408c-10.6752 0-19.2 4.2752-29.8752 6.4l-251.8016 117.3504c-29.8496 12.8-55.4752 42.6752-55.4752 66.1504v324.352c0 23.4752 19.2 38.4 44.8 38.4 6.4 0 19.2-4.2752 25.6-6.4l256.0768-117.3504c29.8752-12.8 55.4752-42.6752 55.4752-66.1504v-320.0768c0-25.6-21.3248-42.6752-44.8-42.6752z m136.5504 0c-25.6 0-44.8 17.0752-44.8 38.4V341.0688c0 25.6 21.3248 53.3504 55.4752 66.1504l256.0512 121.6c6.4 4.3008 19.2 6.4256 25.6 6.4256 25.6 0 44.8-17.0752 44.8-38.4v-320.0768c0-25.6-21.3248-51.2-55.4496-66.1504l-256.0512-121.6a56.832 56.832 0 0 0-25.6-6.4256z"  horiz-adv-x="1024" />

    
    <glyph glyph-name="ic_project" unicode="&#59254;" d="M475.7504 466.432c0-32.3072-30.2848-58.7776-67.2256-58.7776H169.6512C132.6848 407.6544 102.4 434.1248 102.4 466.432V684.16C102.4 716.4416 132.6848 742.912 169.6512 742.912h238.976c36.9408 0 67.2256-26.4704 67.2256-58.752v-217.728h-0.1024z m0-372.7616c0-32.3072-30.2848-58.752-67.2256-58.752H169.6512C132.6848 34.9184 102.4 61.3632 102.4 93.6704v217.6512c0 32.384 30.2848 58.752 67.2512 58.752h238.976c36.9408 0 67.2256-26.4704 67.2256-58.752v-217.6512h-0.1024z m436.7872 372.736c0-32.2816-30.2848-58.752-67.2256-58.752h-238.976c-36.9664 0-67.2512 26.4704-67.2512 58.7776V684.16c0 32.2816 30.2848 58.752 67.2512 58.752h238.976c36.9408 0 67.2256-26.4704 67.2256-58.752v-217.728z m0-372.736c0-32.3072-30.2848-58.752-67.2256-58.752h-238.976c-36.9664 0-67.2512 26.4448-67.2512 58.752v217.6512c0 32.2816 30.2848 58.752 67.2512 58.752h238.976c37.0432 0 67.2256-26.4704 67.2256-58.752v-217.6512z"  horiz-adv-x="1024" />

    
    <glyph glyph-name="ic_menuunfold" unicode="&#59255;" d="M102.4 632.704V701.44h829.44v-68.736H102.4zM378.88 323.328v68.7616h552.96v-68.7616H378.88zM102.4 13.9776V82.688h829.44v-68.736H102.4zM244.3776 259.7376c0-5.248-7.0656-8.7296-12.3904-5.248L106.368 350.72a8.1408 8.1408 0 0 0 0 13.9776l125.6192 96.2048c5.3248 3.5072 12.3904 0 12.3904-5.248v-195.9168z"  horiz-adv-x="1024" />

    
    <glyph glyph-name="ic_menufold" unicode="&#59256;" d="M921.6 632.704V701.44H92.16v-68.736H921.6zM645.12 323.328v68.7616H92.16v-68.7616h552.96zM921.6 13.9776V82.688H92.16v-68.736H921.6zM779.6224 259.7376c0-5.248 7.0656-8.7296 12.3904-5.248l125.6192 96.2304a8.1408 8.1408 0 0 1 0 13.9776l-125.6192 96.2048c-5.3248 3.5072-12.3904 0-12.3904-5.248v-195.9168z"  horiz-adv-x="1024" />

    
    <glyph glyph-name="ic_upgrade" unicode="&#59257;" d="M811.392 89.1392H202.624c-27.3408 0-49.536-22.528-49.536-50.3296 0-27.8016 22.1952-50.3296 49.5616-50.3296h608.768c27.3408 0 49.536 22.528 49.536 50.3296 0 27.8016-22.1952 50.3296-49.5616 50.3296zM167.5008 460.3904H335.36v-241.408c0-35.7376 28.5184-64.7168 63.7184-64.7168h215.8848c35.2 0 63.7184 28.9792 63.7184 64.7168v241.408h167.8592a14.4384 14.4384 0 0 1 9.8816 24.9088L550.5536 776.1152a62.976 62.976 0 0 1-87.0656 0L157.6192 485.376c-9.472-8.96-3.1232-24.96 9.8816-24.96z"  horiz-adv-x="1024" />

    
    <glyph glyph-name="ic_version" unicode="&#59258;" d="M765.44 345.088V695.68A97.8944 97.8944 0 0 1 667.5712 793.6H200.32A97.8944 97.8944 0 0 1 102.4 695.68v-579.3536a97.8944 97.8944 0 0 1 97.92-97.92l611.0208 0.3584c2.4064-0.2048 4.6592-0.6912 7.0912-0.6912a93.7216 93.7216 0 0 1 93.6448 93.696v233.344h-146.6112zM234.8544 625.28h287.6416a45.4144 45.4144 0 0 0 0-90.7776H234.8288a45.3888 45.3888 0 1 0 0 90.7776zM641.28 177.4592H230.2208a41.856 41.856 0 1 0 0 83.712H641.28a41.8304 41.8304 0 0 0 0-83.712z m0 174.4896H230.2208a41.8304 41.8304 0 1 0 0 83.6608H641.28a41.8304 41.8304 0 1 0 0-83.6608z m221.8496-240.1792c0-24.704-20.0448-44.7232-44.672-44.7232a44.7744 44.7744 0 0 0-44.672 44.7232v184.3456h89.344v-184.3456z"  horiz-adv-x="1024" />

    
    <glyph glyph-name="ic_user" unicode="&#59259;" d="M102.4 384c0-146.048 78.08-281.0112 204.8-354.048a410.2912 410.2912 0 0 1 409.6 0c126.72 73.0368 204.8 208 204.8 354.048S843.52 665.0112 716.8 738.048a410.2912 410.2912 0 0 1-409.6 0C180.48 665.0112 102.4 530.048 102.4 384zM805.7856 99.2256s-66.9184 149.0944-228.0448 143.2832c0 0-19.3536-134.8608-71.168-134.8608s-74.8032 116.224-74.8032 134.8608c0 0-113.5616 17.6128-218.368-139.6736 0 0 79.7184-126.6432 306.432-127.6416 177.92-0.768 264.832 106.5984 288.3584 122.8288M340.0704 458.0608s-22.8864 119.296 24.1408 136.064c0 0-12.9792 41.4976 45.824 46.9504 0 0 38.4 50.048 180.992 4.8128 0 0 23.296-10.0864 37.376-32.512 0 0 36.48-22.1952 39.8336-34.9184 3.328-12.6976 16.7936-68.864 2.4064-86.6816 0 0 2.688-24.064-19.3024-34.9184-23.5776-11.6736-93.312-9.5488-311.2704 1.2032zM576.5376 278.6304s36.4544-6.1184 69.9904 86.7072c0 0 87.04 45.3888 27.7504 89.088 0 0-18.5344 67.9424-71.168 102.3744-52.6848 34.4064-110.1056-5.12-113.408-33.7152 0 0-110.7456 7.5264-149.632-63.8208 0 0-63.5904-34.176 24.1408-87.9104 0 0 37.2992-83.968 72.3712-91.52 0 0-7.7312-90.2912 63.9488-90.2912 71.68 0 76.032 69.0688 76.032 89.088z"  horiz-adv-x="1024" />

    
    <glyph glyph-name="ic_success" unicode="&#59260;" d="M514.56 793.6C286.9248 793.6 102.4 609.0752 102.4 381.44c0-227.6352 184.5248-412.16 412.16-412.16 227.6352 0 412.16 184.5248 412.16 412.16C926.72 609.0752 742.1952 793.6 514.56 793.6z m286.6176-276.7616L456.192 211.8656a28.544 28.544 0 0 0-37.6064 0l-131.7888 114.432a22.6304 22.6304 0 0 0 0 34.176 28.544 28.544 0 0 0 37.632 0l112.9984-97.3824 326.1184 287.9232a28.544 28.544 0 0 0 37.6064 0 22.6304 22.6304 0 0 0 0-34.176z"  horiz-adv-x="1024" />

    
    <glyph glyph-name="ic_tree" unicode="&#59261;" d="M153.088 692.5312v-608.8704A50.432 50.432 0 0 1 203.4688 33.28h608.8704a50.432 50.432 0 0 1 50.3808 50.3808V692.5312a50.432 50.432 0 0 1-50.3808 50.3808H203.4688A50.432 50.432 0 0 1 153.088 692.5312z m-50.688 0A101.12 101.12 0 0 0 203.4688 793.6h608.8704a101.12 101.12 0 0 0 101.0688-101.0688v-608.8704a101.12 101.12 0 0 0-101.0688-101.0688H203.4688A101.12 101.12 0 0 0 102.4 83.6608V692.5312z m207.5136-280.6784h395.9808a23.7568 23.7568 0 1 0 0-47.5136H309.9136a23.7568 23.7568 0 1 0 0 47.5136z"  horiz-adv-x="1024" />

    
    <glyph glyph-name="ic_tree_retract" unicode="&#59262;" d="M153.088 692.5312v-608.8704A50.432 50.432 0 0 1 203.4688 33.28h608.8704a50.432 50.432 0 0 1 50.3808 50.3808V692.5312a50.432 50.432 0 0 1-50.3808 50.3808H203.4688A50.432 50.432 0 0 1 153.088 692.5312z m-50.688 0A101.12 101.12 0 0 0 203.4688 793.6h608.8704a101.12 101.12 0 0 0 101.0688-101.0688v-608.8704a101.12 101.12 0 0 0-101.0688-101.0688H203.4688A101.12 101.12 0 0 0 102.4 83.6608V692.5312z m385.7152-284.6464V590.08a19.7888 19.7888 0 0 0 39.5776 0v-182.1696h182.1696a19.7888 19.7888 0 0 0 0-39.5776h-182.1696v-182.1696a19.7888 19.7888 0 0 0-39.5776 0v182.1696H305.92a19.7888 19.7888 0 0 0 0 39.5776h182.1696z"  horiz-adv-x="1024" />

    
    <glyph glyph-name="ic_close" unicode="&#59263;" d="M582.8352 383.9744l324.096 324.0448a49.9456 49.9456 0 0 1 0 70.7584 49.8688 49.8688 0 0 1-70.7328 0L512 454.8608 187.8016 778.9056a49.8688 49.8688 0 0 1-70.7072 0 49.9456 49.9456 0 0 1 0-70.7584l324.0704-324.0448L117.0688 59.904a49.9456 49.9456 0 0 1 35.3792-85.4016 49.664 49.664 0 0 1 35.3536 14.6432L512 313.216l324.1984-324.1728c9.7792-9.8048 22.528-14.6432 35.3536-14.6432a49.9456 49.9456 0 0 1 35.3536 85.4016L582.8352 383.9744z"  horiz-adv-x="1024" />

    
    <glyph glyph-name="btn_Previous_left" unicode="&#59264;" d="M768 793.6L281.6 383.9488 768-25.6z"  horiz-adv-x="1024" />

    
    <glyph glyph-name="ic_dropdown_blue" unicode="&#59265;" d="M147.6864 630.8608a25.5744 25.5744 0 1 1-37.2992-34.9696l383.488-409.088a25.5744 25.5744 0 0 1 37.2992 0l383.488 409.088a25.5744 25.5744 0 0 1-37.2736 34.9696L512.512 241.664 147.6864 630.8608z"  horiz-adv-x="1024" />

    
    <glyph glyph-name="ic_dropup_blue" unicode="&#59266;" d="M147.6864 137.1392a25.5744 25.5744 0 1 0-37.2992 34.9696l383.488 409.088a25.5744 25.5744 0 0 0 37.2992 0l383.488-409.088a25.5744 25.5744 0 0 0-37.2736-34.9696L512.512 526.336 147.6864 137.1392z"  horiz-adv-x="1024" />

    
    <glyph glyph-name="EnlargeIcon" unicode="&#59267;" d="M921.6 793.6v-614.6048A204.5952 204.5952 0 0 0 717.0048-25.6H102.4L921.6 793.6z"  horiz-adv-x="1024" />

    
    <glyph glyph-name="ic_error" unicode="&#59268;" d="M514.56 793.6C286.8992 793.6 102.4 609.1008 102.4 381.44s184.4992-412.16 412.16-412.16 412.16 184.4992 412.16 412.16S742.2208 793.6 514.56 793.6z m193.9968-566.144a25.856 25.856 0 0 0 0.4096-36.48 25.856 25.856 0 0 0-36.4544-0.4096l-157.952 154.8032-157.952-154.7264a25.728 25.728 0 0 0-36.4544 0.4096 25.728 25.728 0 0 0 0.4096 36.48l157.184 153.9072-157.184 153.984a25.856 25.856 0 0 0-0.4096 36.48 25.856 25.856 0 0 0 36.4544 0.4096l157.952-154.8032 157.952 154.7264a25.728 25.728 0 0 0 36.4544-0.4096c9.984-10.1376 9.8304-26.496-0.4096-36.48l-157.184-153.9072 157.184-153.984z"  horiz-adv-x="1024" />

    
    <glyph glyph-name="btn_Previous_Page" unicode="&#59269;" d="M819.2 793.6v-819.2L307.2 383.9488 819.2 793.6zM230.4 793.6h76.8v-819.2H230.4V793.6z"  horiz-adv-x="1024" />

    
    <glyph glyph-name="ic_loading" unicode="&#59270;" d="M507.904 793.6a50.688 50.688 0 0 0 0-101.376c-167.9616 0-304.128-136.1664-304.128-304.128 0-167.9616 136.1664-304.128 304.128-304.128 167.9616 0 304.128 136.1664 304.128 304.128a50.688 50.688 0 0 0 101.376 0c0-223.9488-181.5552-405.504-405.504-405.504C283.9552-17.408 102.4 164.1472 102.4 388.096 102.4 612.0448 283.9552 793.6 507.904 793.6z"  horiz-adv-x="1024" />

    
    <glyph glyph-name="btn_Previous_right" unicode="&#59271;" d="M281.6-25.6l486.4 409.6512L281.6 793.6z"  horiz-adv-x="1024" />

    
    <glyph glyph-name="ic_date" unicode="&#59272;" d="M686.8992 413.312H342.1184c-15.872 0-28.6976-12.8768-28.6976-28.8s12.8256-28.8 28.6976-28.8h344.8832c15.872 0 28.6976 12.8768 28.6976 28.8a28.8768 28.8768 0 0 1-28.8 28.8z m0-155.904H342.1184c-15.872 0-28.6976-12.9024-28.6976-28.8256 0-15.8976 12.8256-28.7744 28.6976-28.7744h344.8832c15.872 0 28.6976 12.8768 28.6976 28.7744a28.8768 28.8768 0 0 1-28.8 28.8z m173.6704 425.8048h-106.0608v22.7072a28.7488 28.7488 0 0 1-57.4208 0v-22.7072H331.9552v22.7072a28.7488 28.7488 0 0 1-57.4208 0v-22.7072H168.448A66.0992 66.0992 0 0 1 102.4 616.96v-522.496a66.0992 66.0992 0 0 1 66.048-66.2528h692.224a66.0992 66.0992 0 0 1 66.048 66.2272V616.96a66.304 66.304 0 0 1-66.1504 66.2528zM168.448 616.96h106.1632v-14.9248a28.7488 28.7488 0 0 1 57.4208 0v14.9248h365.1328v-14.9248a28.7488 28.7488 0 0 1 57.4208 0v14.9248h106.1632v-90.2656H168.448v90.2656z m692.1216-522.496H168.448V469.4016h692.224V94.464h-0.1024z"  horiz-adv-x="1024" />

    
    <glyph glyph-name="ic_checkbox_halfsele" unicode="&#59273;" d="M102.4 692.1216A101.4272 101.4272 0 0 0 203.8784 793.6h608.0512a101.4272 101.4272 0 0 0 101.4784-101.4784v-608.0512a101.4272 101.4272 0 0 0-101.4784-101.4784H203.8784A101.4272 101.4272 0 0 0 102.4 84.0704V692.1216z m202.752-329.3696h405.504a25.344 25.344 0 0 1 0 50.688H305.152a25.344 25.344 0 0 1 0-50.688z"  horiz-adv-x="1024" />

    
    <glyph glyph-name="ic_alert" unicode="&#59274;" d="M102.4 381.44c0-227.6608 184.4992-412.16 412.16-412.16s412.16 184.4992 412.16 412.16S742.2208 793.6 514.56 793.6 102.4 609.1008 102.4 381.44z m437.9136-231.8336a25.728 25.728 0 1 0-51.5072 0 25.728 25.728 0 1 0 51.5072 0z m0 103.04a25.728 25.728 0 1 0-51.5072 0V613.2736a25.728 25.728 0 1 0 51.5072 0V252.672z"  horiz-adv-x="1024" />

    
    <glyph glyph-name="ic_order" unicode="&#59275;" d="M282.6496 467.328l208.4864 251.4944a21.9136 21.9136 0 0 0 32.6144 0l207.4624-251.4944c12.544-14.08 2.56-36.4032-16.3072-36.4032h-416a21.8368 21.8368 0 0 0-16.256 36.4032zM282.6496 290.432l208.4864-251.4944c8.704-9.728 23.936-9.728 32.6144 0l207.4624 251.4944a21.8624 21.8624 0 0 1-16.3072 36.4032h-416a21.8368 21.8368 0 0 1-16.256-36.4032z"  horiz-adv-x="1024" />

    
    <glyph glyph-name="ic_checkbox_selected" unicode="&#59276;" d="M102.4 692.1216A101.4272 101.4272 0 0 0 203.8784 793.6h608.0512a101.4272 101.4272 0 0 0 101.4784-101.4784v-608.0512a101.4272 101.4272 0 0 0-101.4784-101.4784H203.8784A101.4272 101.4272 0 0 0 102.4 84.0704V692.1216z m302.72-458.496l-113.5104 126.08a28.5184 28.5184 0 0 1-42.368-38.144l134.2976-149.1712c7.5776-8.4224 19.0208-11.264 29.184-8.2944 5.3248 1.3312 10.2912 4.1984 14.2336 8.576l340.0448 377.6512a28.5184 28.5184 0 0 1-42.3936 38.144l-319.488-354.816z"  horiz-adv-x="1024" />

    
    <glyph glyph-name="ic_project1" unicode="&#59277;" d="M510.6688-23.552c224.8704 0 408.2176 183.552 408.2176 408.6272-0.1536 224.9216-183.5264 408.4736-408.2176 408.4736C285.7728 793.5488 102.4 609.9968 102.4 385.0752c0-225.1008 183.3472-408.6272 408.2432-408.6272zM491.0592 163.8144l-196.1472 70.4768-3.1488 1.152V533.0432l6.3232-2.176 195.968-66.816 3.328-1.1776v-301.2352l-6.3232 2.176z m235.1616 70.4768l-196.1216-70.4768-6.3232-2.176V462.8736l3.328 1.1776 196.1472 66.816 6.144 2.176v-297.6l-3.1744-1.152z m-410.88 318.208l198.4768 56.0128 2.816-0.1792 184.0128-59.3408v-8.96l-184.0128-62.5152h-2.9952l-198.4512 65.9968 0.1536 8.96z"  horiz-adv-x="1024" />

    
    <glyph glyph-name="btn_Next_Page" unicode="&#59278;" d="M230.4-25.6l512 409.6512L230.4 793.6zM742.4 793.6h76.8v-819.2h-76.8z"  horiz-adv-x="1024" />

    
    <glyph glyph-name="ic_alert1" unicode="&#59279;" d="M514.56 793.6C286.8992 793.6 102.4 609.1008 102.4 381.44s184.4992-412.16 412.16-412.16 412.16 184.4992 412.16 412.16S742.2208 793.6 514.56 793.6z m0-154.5728a25.728 25.728 0 1 0 0-51.5072 25.728 25.728 0 1 0 0 51.5072z m76.8768-515.2h-153.7536a25.728 25.728 0 1 0 0 51.5328h49.92V434.9696h-50.7136a25.728 25.728 0 1 0 0 51.5328h76.4672c14.2336 0 25.7536-11.52 25.7536-25.7792V175.36h52.3264c14.2592 0 26.5728-11.52 26.5728-25.7536 0-14.2592-12.3136-25.7792-26.5728-25.7792z"  horiz-adv-x="1024" />

    


  </font>
</defs>
</svg>
