<?xml version="1.0" encoding="utf-8"?>
<!-- Generator: Adobe Illustrator 22.0.0, SVG Export Plug-In . SVG Version: 6.00 Build 0)  -->
<svg version="1.1" id="图层_1" xmlns="http://www.w3.org/2000/svg" xmlns:xlink="http://www.w3.org/1999/xlink" x="0px" y="0px"
	 viewBox="0 0 48 48" style="enable-background:new 0 0 48 48;" xml:space="preserve">
<style type="text/css">
	.st0{fill:none;}
	.st1{opacity:0.7;enable-background:new    ;}
	.st2{fill:#8A8FA1;}
</style>
<title>cutting/ic_login_psw_hl</title>
<desc>Created with Sketch.</desc>
<g id="cutting_x2F_ic_x5F_login_x5F_psw_x5F_hl">
	<g id="_x25_placeholder_x2F_48x">
		<rect class="st0" width="48" height="48"/>
	</g>
	<g id="shape" transform="translate(8.000000, 6.000000)">
		<g id="Path-2" class="st1">
			<path class="st2" d="M16,30.5c-0.8,0-1.5-0.7-1.5-1.5v-7c0-0.8,0.7-1.5,1.5-1.5s1.5,0.7,1.5,1.5v7C17.5,29.8,16.8,30.5,16,30.5z"
				/>
		</g>
		<g id="Oval">
			<path class="st2" d="M30.5,13h-3c0-6.3-5.2-11.5-11.5-11.5C9.7,1.5,4.5,6.7,4.5,13h-3C1.5,5,8-1.5,16-1.5S30.5,5,30.5,13z"/>
		</g>
		<g id="Rectangle">
			<path class="st2" d="M29,38.5H3c-2.5,0-4.5-2-4.5-4.5V17c0-2.5,2-4.5,4.5-4.5h26c2.5,0,4.5,2,4.5,4.5v17
				C33.5,36.5,31.5,38.5,29,38.5z M3,15.5c-0.8,0-1.5,0.7-1.5,1.5v17c0,0.8,0.7,1.5,1.5,1.5h26c0.8,0,1.5-0.7,1.5-1.5V17
				c0-0.8-0.7-1.5-1.5-1.5H3z"/>
		</g>
	</g>
</g>
</svg>
