<?xml version="1.0" encoding="utf-8"?>
<!-- Generator: Adobe Illustrator 22.0.0, SVG Export Plug-In . SVG Version: 6.00 Build 0)  -->
<svg version="1.1" id="图层_1" xmlns="http://www.w3.org/2000/svg" xmlns:xlink="http://www.w3.org/1999/xlink" x="0px" y="0px"
	 viewBox="0 0 48 48" style="enable-background:new 0 0 48 48;" xml:space="preserve">
<style type="text/css">
	.st0{fill:none;}
	.st1{fill:#8A8FA1;}
	.st2{opacity:0.7;enable-background:new    ;}
</style>
<title>cutting/ic_login_user_hl</title>
<desc>Created with Sketch.</desc>
<g id="cutting_x2F_ic_x5F_login_x5F_user_x5F_hl">
	<g id="_x25_placeholder_x2F_48x">
		<rect class="st0" width="48" height="48"/>
	</g>
	<g id="shape" transform="translate(7.000000, 5.000000)">
		<g id="Combined-Shape-Copy">
			<path class="st1" d="M30.6,40.5H3.4c-2.5,0-4.5-2.1-4.5-4.6c0-0.3,0-0.5,0-0.7c0.2-5.6,1.4-11.4,8.1-14.2
				c-2.2-2.5-3.5-5.7-3.5-9.1C3.5,4.6,9.6-1.5,17-1.5c7.4,0,13.5,6.1,13.5,13.5c0,3.4-1.3,6.6-3.5,9.1c6.6,2.7,7.8,8.5,8.1,13.5l0,0
				c0,0.4,0,0.8,0,1.4c0,0,0,0,0,0.1C35.1,38.5,33.1,40.5,30.6,40.5z M17,1.5C11.2,1.5,6.5,6.2,6.5,12c0,3.3,1.6,6.5,4.3,8.5
				c0.5,0.3,0.7,0.9,0.6,1.5c-0.1,0.6-0.6,1-1.1,1.2C4.5,24.5,2.2,28,1.9,35.3c0,0.2,0,0.4,0,0.6c0,0.8,0.7,1.5,1.5,1.5h27.2
				c0.8,0,1.5-0.7,1.5-1.5c0-0.5,0-0.9,0-1.3l0,0c-0.4-7-2.7-10.2-8.4-11.5c-0.6-0.1-1-0.6-1.1-1.2c-0.1-0.6,0.1-1.2,0.6-1.5
				c2.7-2,4.3-5.1,4.3-8.5C27.5,6.2,22.8,1.5,17,1.5z"/>
		</g>
		<g id="Oval-3" class="st2">
			<path class="st1" d="M17,18.5c-2.6,0-4.9-1.5-6-3.9c-0.3-0.8,0-1.6,0.8-2c0.8-0.3,1.6,0,2,0.8c0.6,1.3,1.8,2.1,3.2,2.1
				c1.4,0,2.6-0.8,3.2-2.1c0.3-0.8,1.2-1.1,2-0.7c0.8,0.3,1.1,1.2,0.7,2C21.9,17,19.5,18.5,17,18.5z"/>
		</g>
	</g>
</g>
</svg>
